<svg width="52" height="60" viewBox="0 0 52 60" fill="none" xmlns="http://www.w3.org/2000/svg">
<path d="M3.952 56.3039C3.248 56.3039 2.61333 56.1812 2.048 55.9359C1.48267 55.6905 1.01333 55.3279 0.64 54.8479L1.76 53.8879C2.08 54.2612 2.42667 54.5332 2.8 54.7039C3.184 54.8639 3.616 54.9439 4.096 54.9439C4.288 54.9439 4.464 54.9225 4.624 54.8799C4.79467 54.8265 4.93867 54.7519 5.056 54.6559C5.184 54.5599 5.28 54.4479 5.344 54.3199C5.408 54.1812 5.44 54.0319 5.44 53.8719C5.44 53.5945 5.33867 53.3705 5.136 53.1999C5.02933 53.1252 4.85867 53.0452 4.624 52.9599C4.4 52.8639 4.10667 52.7679 3.744 52.6719C3.12533 52.5119 2.61867 52.3305 2.224 52.1279C1.82933 51.9252 1.52533 51.6959 1.312 51.4399C1.152 51.2372 1.03467 51.0185 0.96 50.7839C0.885333 50.5385 0.848 50.2719 0.848 49.9839C0.848 49.6319 0.922667 49.3119 1.072 49.0239C1.232 48.7252 1.44533 48.4692 1.712 48.2559C1.98933 48.0319 2.30933 47.8612 2.672 47.7439C3.04533 47.6265 3.44 47.5679 3.856 47.5679C4.25067 47.5679 4.64 47.6212 5.024 47.7279C5.41867 47.8345 5.78133 47.9892 6.112 48.1919C6.44267 48.3945 6.72 48.6345 6.944 48.9119L6 49.9519C5.79733 49.7492 5.57333 49.5732 5.328 49.4239C5.09333 49.2639 4.85333 49.1412 4.608 49.0559C4.36267 48.9705 4.13867 48.9279 3.936 48.9279C3.712 48.9279 3.50933 48.9492 3.328 48.9919C3.14667 49.0345 2.992 49.0985 2.864 49.1839C2.74667 49.2692 2.656 49.3759 2.592 49.5039C2.528 49.6319 2.496 49.7759 2.496 49.9359C2.50667 50.0745 2.53867 50.2079 2.592 50.3359C2.656 50.4532 2.74133 50.5545 2.848 50.6399C2.96533 50.7252 3.14133 50.8159 3.376 50.9119C3.61067 51.0079 3.90933 51.0985 4.272 51.1839C4.80533 51.3225 5.24267 51.4772 5.584 51.6479C5.936 51.8079 6.21333 51.9945 6.416 52.2079C6.62933 52.4105 6.77867 52.6452 6.864 52.9119C6.94933 53.1785 6.992 53.4772 6.992 53.8079C6.992 54.2879 6.85333 54.7199 6.576 55.1039C6.30933 55.4772 5.94667 55.7705 5.488 55.9839C5.02933 56.1972 4.51733 56.3039 3.952 56.3039ZM12.7283 56.3039C11.8643 56.3039 11.0963 56.1225 10.4243 55.7599C9.76292 55.3865 9.24025 54.8799 8.85625 54.2399C8.48292 53.5999 8.29625 52.8639 8.29625 52.0319C8.29625 51.3705 8.40292 50.7679 8.61625 50.2239C8.82958 49.6799 9.12292 49.2105 9.49625 48.8159C9.88025 48.4105 10.3336 48.1012 10.8563 47.8879C11.3896 47.6639 11.9656 47.5519 12.5843 47.5519C13.1283 47.5519 13.6349 47.6585 14.1043 47.8719C14.5736 48.0745 14.9789 48.3572 15.3203 48.7199C15.6723 49.0825 15.9389 49.5145 16.1203 50.0159C16.3123 50.5065 16.4029 51.0452 16.3923 51.6319L16.3763 52.3359H9.51225L9.14425 51.0239H14.9523L14.7123 51.2959V50.9119C14.6803 50.5599 14.5629 50.2452 14.3603 49.9679C14.1576 49.6905 13.9016 49.4719 13.5923 49.3119C13.2829 49.1519 12.9469 49.0719 12.5843 49.0719C12.0083 49.0719 11.5229 49.1839 11.1283 49.4079C10.7336 49.6212 10.4349 49.9412 10.2323 50.3679C10.0296 50.7839 9.92825 51.3012 9.92825 51.9199C9.92825 52.5065 10.0509 53.0185 10.2963 53.4559C10.5416 53.8825 10.8883 54.2132 11.3363 54.4479C11.7843 54.6825 12.3016 54.7999 12.8883 54.7999C13.3043 54.7999 13.6883 54.7305 14.0403 54.5919C14.4029 54.4532 14.7923 54.2025 15.2083 53.8399L16.0403 55.0079C15.7843 55.2639 15.4696 55.4879 15.0963 55.6799C14.7336 55.8719 14.3443 56.0265 13.9283 56.1439C13.5229 56.2505 13.1229 56.3039 12.7283 56.3039ZM21.4153 56.3039C20.7219 56.3039 20.0873 56.1119 19.5113 55.7279C18.9459 55.3439 18.4926 54.8212 18.1513 54.1599C17.8099 53.4985 17.6393 52.7519 17.6393 51.9199C17.6393 51.0772 17.8099 50.3305 18.1513 49.6799C18.5033 49.0185 18.9726 48.5012 19.5593 48.1279C20.1566 47.7545 20.8233 47.5679 21.5593 47.5679C21.9966 47.5679 22.3966 47.6319 22.7593 47.7599C23.1219 47.8879 23.4366 48.0692 23.7033 48.3039C23.9806 48.5279 24.2046 48.7892 24.3753 49.0879C24.5566 49.3865 24.6686 49.7065 24.7113 50.0479L24.3433 49.9199V47.7439H26.0073V56.1439H24.3433V54.1439L24.7273 54.0319C24.6633 54.3199 24.5299 54.6025 24.3273 54.8799C24.1353 55.1465 23.8846 55.3865 23.5753 55.5999C23.2766 55.8132 22.9406 55.9839 22.5673 56.1119C22.2046 56.2399 21.8206 56.3039 21.4153 56.3039ZM21.8473 54.7839C22.3486 54.7839 22.7913 54.6612 23.1753 54.4159C23.5593 54.1705 23.8579 53.8345 24.0713 53.4079C24.2953 52.9705 24.4073 52.4745 24.4073 51.9199C24.4073 51.3759 24.2953 50.8905 24.0713 50.4639C23.8579 50.0372 23.5593 49.7012 23.1753 49.4559C22.7913 49.2105 22.3486 49.0879 21.8473 49.0879C21.3566 49.0879 20.9193 49.2105 20.5353 49.4559C20.1619 49.7012 19.8633 50.0372 19.6393 50.4639C19.4259 50.8905 19.3193 51.3759 19.3193 51.9199C19.3193 52.4745 19.4259 52.9705 19.6393 53.4079C19.8633 53.8345 20.1619 54.1705 20.5353 54.4159C20.9193 54.6612 21.3566 54.7839 21.8473 54.7839ZM28.3083 56.1439V47.7439H29.9723V50.3839L29.8123 49.7439C29.9296 49.3385 30.1269 48.9705 30.4043 48.6399C30.6923 48.3092 31.0176 48.0479 31.3802 47.8559C31.7536 47.6639 32.1376 47.5679 32.5323 47.5679C32.7136 47.5679 32.8843 47.5839 33.0443 47.6159C33.2149 47.6479 33.3483 47.6852 33.4443 47.7279L33.0123 49.5199C32.8843 49.4665 32.7403 49.4239 32.5803 49.3919C32.4309 49.3492 32.2816 49.3279 32.1323 49.3279C31.8443 49.3279 31.5669 49.3865 31.3003 49.5039C31.0443 49.6105 30.8149 49.7652 30.6123 49.9679C30.4203 50.1599 30.2656 50.3892 30.1483 50.6559C30.0309 50.9119 29.9723 51.1945 29.9723 51.5039V56.1439H28.3083ZM37.97 56.3039C37.1913 56.3039 36.4927 56.1119 35.874 55.7279C35.266 55.3439 34.7807 54.8212 34.418 54.1599C34.066 53.4985 33.89 52.7572 33.89 51.9359C33.89 51.1145 34.066 50.3732 34.418 49.7119C34.7807 49.0505 35.266 48.5279 35.874 48.1439C36.4927 47.7599 37.1913 47.5679 37.97 47.5679C38.7167 47.5679 39.394 47.7225 40.002 48.0319C40.6207 48.3305 41.09 48.7412 41.41 49.2639L40.498 50.3839C40.3273 50.1385 40.1087 49.9145 39.842 49.7119C39.5753 49.5092 39.2927 49.3492 38.994 49.2319C38.6953 49.1145 38.4073 49.0559 38.13 49.0559C37.618 49.0559 37.1593 49.1839 36.754 49.4399C36.3593 49.6852 36.0447 50.0265 35.81 50.4639C35.5753 50.9012 35.458 51.3919 35.458 51.9359C35.458 52.4799 35.5807 52.9705 35.826 53.4079C36.0713 53.8345 36.3967 54.1759 36.802 54.4319C37.2073 54.6879 37.6553 54.8159 38.146 54.8159C38.434 54.8159 38.7113 54.7679 38.978 54.6719C39.2553 54.5759 39.522 54.4319 39.778 54.2399C40.034 54.0479 40.274 53.8132 40.498 53.5359L41.41 54.6559C41.0687 55.1359 40.578 55.5305 39.938 55.8399C39.3087 56.1492 38.6527 56.3039 37.97 56.3039ZM42.9645 56.1439V44.3039H44.6125V49.4719L44.3245 49.6639C44.4312 49.2905 44.6392 48.9492 44.9485 48.6399C45.2578 48.3199 45.6258 48.0639 46.0525 47.8719C46.4792 47.6692 46.9165 47.5679 47.3645 47.5679C48.0045 47.5679 48.5378 47.6959 48.9645 47.9519C49.3912 48.1972 49.7112 48.5759 49.9245 49.0879C50.1378 49.5999 50.2445 50.2452 50.2445 51.0239V56.1439H48.5965V51.1359C48.5965 50.6559 48.5325 50.2612 48.4045 49.9519C48.2765 49.6319 48.0792 49.4025 47.8125 49.2639C47.5458 49.1145 47.2152 49.0505 46.8205 49.0719C46.5005 49.0719 46.2072 49.1252 45.9405 49.2319C45.6738 49.3279 45.4392 49.4665 45.2365 49.6479C45.0445 49.8292 44.8898 50.0425 44.7725 50.2879C44.6658 50.5225 44.6125 50.7785 44.6125 51.0559V56.1439H43.7965C43.6578 56.1439 43.5192 56.1439 43.3805 56.1439C43.2418 56.1439 43.1032 56.1439 42.9645 56.1439Z" fill="white"/>
<mask id="mask0_2_104" style="mask-type:alpha" maskUnits="userSpaceOnUse" x="2" y="0" width="40" height="41">
<rect x="2" y="0.691772" width="40" height="39.4521" fill="#D9D9D9"/>
</mask>
<g mask="url(#mask0_2_104)">
<path d="M33.5 34.0616L24.1667 24.8562C23.3333 25.5137 22.375 26.0342 21.2917 26.4178C20.2083 26.8014 19.0556 26.9932 17.8333 26.9932C14.8056 26.9932 12.2433 25.9592 10.1467 23.8912C8.04889 21.8222 7 19.2945 7 16.3082C7 13.3219 8.04889 10.7943 10.1467 8.72521C12.2433 6.65726 14.8056 5.62329 17.8333 5.62329C20.8611 5.62329 23.4239 6.65726 25.5217 8.72521C27.6183 10.7943 28.6667 13.3219 28.6667 16.3082C28.6667 17.5137 28.4722 18.6507 28.0833 19.7192C27.6944 20.7877 27.1667 21.7329 26.5 22.5548L35.875 31.8014C36.1806 32.1027 36.3333 32.4726 36.3333 32.911C36.3333 33.3493 36.1667 33.7329 35.8333 34.0616C35.5278 34.363 35.1389 34.5137 34.6667 34.5137C34.1944 34.5137 33.8056 34.363 33.5 34.0616ZM17.8333 23.7055C19.9167 23.7055 21.6878 22.9866 23.1467 21.5488C24.6044 20.1099 25.3333 18.363 25.3333 16.3082C25.3333 14.2534 24.6044 12.5066 23.1467 11.0677C21.6878 9.62987 19.9167 8.91096 17.8333 8.91096C15.75 8.91096 13.9789 9.62987 12.52 11.0677C11.0622 12.5066 10.3333 14.2534 10.3333 16.3082C10.3333 18.363 11.0622 20.1099 12.52 21.5488C13.9789 22.9866 15.75 23.7055 17.8333 23.7055Z" fill="#56CC6A"/>
</g>
</svg>
