<svg width="18" height="24" viewBox="0 0 18 24" fill="none" xmlns="http://www.w3.org/2000/svg">
<path d="M9.048 23.546C7.832 23.546 6.70133 23.386 5.656 23.066C4.632 22.746 3.69333 22.266 2.84 21.626C2.008 20.9647 1.26133 20.154 0.6 19.194L2.968 16.474C4.01333 17.9674 5.016 19.002 5.976 19.578C6.936 20.154 8.07733 20.442 9.4 20.442C10.2107 20.442 10.9467 20.314 11.608 20.058C12.2693 19.802 12.792 19.45 13.176 19.002C13.56 18.554 13.752 18.042 13.752 17.466C13.752 17.082 13.688 16.7194 13.56 16.378C13.432 16.0367 13.2293 15.7274 12.952 15.45C12.696 15.1727 12.3547 14.9167 11.928 14.682C11.5227 14.4474 11.0427 14.2447 10.488 14.074C9.93333 13.882 9.29333 13.722 8.568 13.594C7.416 13.3594 6.41333 13.05 5.56 12.666C4.70667 12.282 3.992 11.802 3.416 11.226C2.84 10.65 2.41333 9.99938 2.136 9.27404C1.85867 8.52738 1.72 7.69538 1.72 6.77804C1.72 5.88204 1.912 5.05004 2.296 4.28204C2.70133 3.51404 3.24533 2.85271 3.928 2.29804C4.632 1.72204 5.45333 1.28471 6.392 0.986042C7.33067 0.666042 8.344 0.506042 9.432 0.506042C10.584 0.506042 11.64 0.655376 12.6 0.954042C13.56 1.25271 14.4133 1.70071 15.16 2.29804C15.9067 2.87404 16.5253 3.58871 17.016 4.44204L14.584 6.84204C14.1573 6.13804 13.6773 5.55138 13.144 5.08204C12.6107 4.59138 12.024 4.22871 11.384 3.99404C10.744 3.73804 10.0613 3.61004 9.336 3.61004C8.504 3.61004 7.77867 3.73804 7.16 3.99404C6.54133 4.25004 6.05067 4.61271 5.688 5.08204C5.34667 5.53004 5.176 6.06338 5.176 6.68204C5.176 7.13004 5.26133 7.54604 5.432 7.93004C5.60267 8.29271 5.85867 8.62338 6.2 8.92204C6.56267 9.19938 7.04267 9.45538 7.64 9.69004C8.23733 9.90338 8.952 10.0954 9.784 10.266C10.9573 10.522 12.0027 10.8527 12.92 11.258C13.8373 11.642 14.616 12.1007 15.256 12.634C15.896 13.1674 16.376 13.7647 16.696 14.426C17.0373 15.0874 17.208 15.802 17.208 16.57C17.208 17.9994 16.8773 19.2367 16.216 20.282C15.5547 21.3274 14.616 22.138 13.4 22.714C12.184 23.2687 10.7333 23.546 9.048 23.546Z" fill="white"/>
</svg>
